<?xml version="1.0" encoding="UTF-8" standalone="no"?> <svg xmlns="http://www.w3.org/2000/svg" xmlns:xlink="http://www.w3.org/1999/xlink" xmlns:serif="http://www.serif.com/" width="100%" height="100%" viewBox="0 0 800 480" version="1.1" xml:space="preserve" style="fill-rule:evenodd;clip-rule:evenodd;stroke-linejoin:round;stroke-miterlimit:2;"><rect id="which-html-spec" x="0" y="0" width="800" height="480" style="fill:#262626;"></rect><path d="M210.62,223.88l3.32,0l2.12,16.48c0.053,1.12 0.14,2.207 0.26,3.26c0.12,1.053 0.22,2.127 0.3,3.22l0.12,0c0.293,-1.093 0.58,-2.173 0.86,-3.24c0.28,-1.067 0.553,-2.147 0.82,-3.24l2.76,-9.68l2.36,0l2.76,9.68c0.24,1.067 0.5,2.14 0.78,3.22c0.28,1.08 0.567,2.167 0.86,3.26l0.16,0c0.08,-1.093 0.173,-2.173 0.28,-3.24c0.107,-1.067 0.2,-2.147 0.28,-3.24l2,-16.48l3.16,0l-3.88,26.28l-3.68,0l-3,-11c-0.187,-0.773 -0.36,-1.56 -0.52,-2.36c-0.16,-0.8 -0.307,-1.587 -0.44,-2.36l-0.12,0c-0.16,0.773 -0.32,1.56 -0.48,2.36c-0.16,0.8 -0.347,1.587 -0.56,2.36l-2.88,11l-3.6,0l-4.04,-26.28Z" style="fill:#fff;fill-rule:nonzero;"></path><path d="M237.94,221.68l3.28,0l0,7.76l-0.16,4.6c1.04,-1.093 2.147,-2 3.32,-2.72c1.173,-0.72 2.52,-1.08 4.04,-1.08c2.32,0 4.02,0.66 5.1,1.98c1.08,1.32 1.62,3.273 1.62,5.86l0,12.08l-3.28,0l0,-11.64c0,-1.84 -0.347,-3.207 -1.04,-4.1c-0.693,-0.893 -1.84,-1.34 -3.44,-1.34c-0.587,0 -1.127,0.073 -1.62,0.22c-0.493,0.147 -0.98,0.367 -1.46,0.66c-0.48,0.293 -0.973,0.66 -1.48,1.1c-0.507,0.44 -1.04,0.953 -1.6,1.54l0,13.56l-3.28,0l0,-28.48Z" style="fill:#fff;fill-rule:nonzero;"></path><path d="M261.82,230.72l12.32,0l0,19.44l-3.28,0l0,-16.76l-9.04,0l0,-2.68Zm10.32,-4c-0.773,0 -1.407,-0.227 -1.9,-0.68c-0.493,-0.453 -0.74,-1.067 -0.74,-1.84c0,-0.773 0.247,-1.393 0.74,-1.86c0.493,-0.467 1.127,-0.7 1.9,-0.7c0.747,0 1.373,0.233 1.88,0.7c0.507,0.467 0.76,1.087 0.76,1.86c0,0.773 -0.253,1.387 -0.76,1.84c-0.507,0.453 -1.133,0.68 -1.88,0.68Z" style="fill:#fff;fill-rule:nonzero;"></path><path d="M285.42,240.48c0,-1.627 0.287,-3.073 0.86,-4.34c0.573,-1.267 1.353,-2.34 2.34,-3.22c0.987,-0.88 2.14,-1.547 3.46,-2c1.32,-0.453 2.713,-0.68 4.18,-0.68c1.6,0 2.98,0.28 4.14,0.84c1.16,0.56 2.14,1.227 2.94,2l-1.64,2.12c-0.8,-0.693 -1.633,-1.24 -2.5,-1.64c-0.867,-0.4 -1.807,-0.6 -2.82,-0.6c-1.12,0 -2.147,0.18 -3.08,0.54c-0.933,0.36 -1.727,0.873 -2.38,1.54c-0.653,0.667 -1.167,1.46 -1.54,2.38c-0.373,0.92 -0.56,1.94 -0.56,3.06c0,1.12 0.18,2.133 0.54,3.04c0.36,0.907 0.867,1.687 1.52,2.34c0.653,0.653 1.44,1.16 2.36,1.52c0.92,0.36 1.94,0.54 3.06,0.54c1.2,0 2.3,-0.233 3.3,-0.7c1,-0.467 1.913,-1.047 2.74,-1.74l1.44,2.12c-1.067,0.96 -2.26,1.707 -3.58,2.24c-1.32,0.533 -2.7,0.8 -4.14,0.8c-1.52,0 -2.927,-0.227 -4.22,-0.68c-1.293,-0.453 -2.42,-1.113 -3.38,-1.98c-0.96,-0.867 -1.707,-1.933 -2.24,-3.2c-0.533,-1.267 -0.8,-2.7 -0.8,-4.3Z" style="fill:#fff;fill-rule:nonzero;"></path><path d="M309.94,221.68l3.28,0l0,7.76l-0.16,4.6c1.04,-1.093 2.147,-2 3.32,-2.72c1.173,-0.72 2.52,-1.08 4.04,-1.08c2.32,0 4.02,0.66 5.1,1.98c1.08,1.32 1.62,3.273 1.62,5.86l0,12.08l-3.28,0l0,-11.64c0,-1.84 -0.347,-3.207 -1.04,-4.1c-0.693,-0.893 -1.84,-1.34 -3.44,-1.34c-0.587,0 -1.127,0.073 -1.62,0.22c-0.493,0.147 -0.98,0.367 -1.46,0.66c-0.48,0.293 -0.973,0.66 -1.48,1.1c-0.507,0.44 -1.04,0.953 -1.6,1.54l0,13.56l-3.28,0l0,-28.48Z" style="fill:#fff;fill-rule:nonzero;"></path><path d="M357.38,223.92l3.36,0l0,11l10.96,0l0,-11l3.36,0l0,26.24l-3.36,0l0,-12.36l-10.96,0l0,12.36l-3.36,0l0,-26.24Z" style="fill:#fff;fill-rule:nonzero;"></path><path d="M388.54,226.72l-8.64,0l0,-2.8l20.64,0l0,2.8l-8.64,0l0,23.44l-3.36,0l0,-23.44Z" style="fill:#fff;fill-rule:nonzero;"></path><path d="M405.46,223.92l3.68,0l3.72,11.16l1.32,4.24l0.16,0l1.28,-4.24l3.68,-11.16l3.68,0l0,26.24l-2.84,0l0,-14.76c0,-0.533 0.013,-1.16 0.04,-1.88c0.027,-0.72 0.06,-1.447 0.1,-2.18c0.04,-0.733 0.08,-1.453 0.12,-2.16c0.04,-0.707 0.087,-1.327 0.14,-1.86l-0.12,0l-1.72,5.6l-3.6,10.12l-1.8,0l-3.6,-10.12l-1.76,-5.6l-0.12,0c0.027,0.533 0.067,1.153 0.12,1.86c0.053,0.707 0.107,1.427 0.16,2.16c0.053,0.733 0.093,1.46 0.12,2.18c0.027,0.72 0.04,1.347 0.04,1.88l0,14.76l-2.8,0l0,-26.24Z" style="fill:#fff;fill-rule:nonzero;"></path><path d="M431.58,223.92l3.28,0l0,23.4l13,0l0,2.84l-16.28,0l0,-26.24Z" style="fill:#fff;fill-rule:nonzero;"></path><path d="M478.9,244.44c0.987,0.987 2.133,1.78 3.44,2.38c1.307,0.6 2.68,0.9 4.12,0.9c1.867,0 3.307,-0.393 4.32,-1.18c1.013,-0.787 1.52,-1.82 1.52,-3.1c0,-0.667 -0.12,-1.233 -0.36,-1.7c-0.24,-0.467 -0.573,-0.867 -1,-1.2c-0.427,-0.333 -0.927,-0.633 -1.5,-0.9c-0.573,-0.267 -1.193,-0.547 -1.86,-0.84l-3.76,-1.64c-0.667,-0.267 -1.333,-0.587 -2,-0.96c-0.667,-0.373 -1.273,-0.827 -1.82,-1.36c-0.547,-0.533 -0.993,-1.167 -1.34,-1.9c-0.347,-0.733 -0.52,-1.58 -0.52,-2.54c0,-0.987 0.213,-1.907 0.64,-2.76c0.427,-0.853 1.02,-1.593 1.78,-2.22c0.76,-0.627 1.667,-1.113 2.72,-1.46c1.053,-0.347 2.207,-0.52 3.46,-0.52c1.653,0 3.173,0.3 4.56,0.9c1.387,0.6 2.56,1.38 3.52,2.34l-1.76,2.16c-0.853,-0.773 -1.793,-1.38 -2.82,-1.82c-1.027,-0.44 -2.193,-0.66 -3.5,-0.66c-1.6,0 -2.867,0.34 -3.8,1.02c-0.933,0.68 -1.4,1.62 -1.4,2.82c0,0.64 0.14,1.18 0.42,1.62c0.28,0.44 0.64,0.827 1.08,1.16c0.44,0.333 0.94,0.62 1.5,0.86c0.56,0.24 1.12,0.48 1.68,0.72l3.68,1.6c0.8,0.32 1.553,0.687 2.26,1.1c0.707,0.413 1.32,0.893 1.84,1.44c0.52,0.547 0.933,1.187 1.24,1.92c0.307,0.733 0.46,1.58 0.46,2.54c0,1.04 -0.213,2.013 -0.64,2.92c-0.427,0.907 -1.04,1.7 -1.84,2.38c-0.8,0.68 -1.773,1.213 -2.92,1.6c-1.147,0.387 -2.44,0.58 -3.88,0.58c-1.92,0 -3.687,-0.347 -5.3,-1.04c-1.613,-0.693 -3.02,-1.64 -4.22,-2.84l2,-2.32Z" style="fill:#fff;fill-rule:nonzero;"></path><path d="M505.22,251.8l0,6.56l-3.28,0l0,-27.64l2.72,0l0.28,2.48l0.12,0c0.907,-0.853 1.953,-1.56 3.14,-2.12c1.187,-0.56 2.38,-0.84 3.58,-0.84c1.307,0 2.46,0.233 3.46,0.7c1,0.467 1.84,1.133 2.52,2c0.68,0.867 1.193,1.907 1.54,3.12c0.347,1.213 0.52,2.58 0.52,4.1c0,1.653 -0.24,3.127 -0.72,4.42c-0.48,1.293 -1.127,2.393 -1.94,3.3c-0.813,0.907 -1.753,1.593 -2.82,2.06c-1.067,0.467 -2.187,0.7 -3.36,0.7c-0.907,0 -1.887,-0.22 -2.94,-0.66c-1.053,-0.44 -2.02,-1.06 -2.9,-1.86l0.08,3.68Zm0,-6.2c0.933,0.827 1.867,1.413 2.8,1.76c0.933,0.347 1.733,0.52 2.4,0.52c1.76,0 3.2,-0.68 4.32,-2.04c1.12,-1.36 1.68,-3.253 1.68,-5.68c0,-1.067 -0.107,-2.04 -0.32,-2.92c-0.213,-0.88 -0.54,-1.633 -0.98,-2.26c-0.44,-0.627 -1.007,-1.113 -1.7,-1.46c-0.693,-0.347 -1.52,-0.52 -2.48,-0.52c-0.853,0 -1.767,0.233 -2.74,0.7c-0.973,0.467 -1.967,1.207 -2.98,2.22l0,9.68Z" style="fill:#fff;fill-rule:nonzero;"></path><path d="M524.98,240.48c0,-1.6 0.28,-3.033 0.84,-4.3c0.56,-1.267 1.3,-2.34 2.22,-3.22c0.92,-0.88 1.973,-1.553 3.16,-2.02c1.187,-0.467 2.407,-0.7 3.66,-0.7c1.387,0 2.627,0.22 3.72,0.66c1.093,0.44 2.02,1.06 2.78,1.86c0.76,0.8 1.34,1.76 1.74,2.88c0.4,1.12 0.6,2.36 0.6,3.72c0,0.347 -0.007,0.687 -0.02,1.02c-0.013,0.333 -0.047,0.62 -0.1,0.86l-15.2,0c0.027,1.04 0.233,1.973 0.62,2.8c0.387,0.827 0.907,1.533 1.56,2.12c0.653,0.587 1.427,1.04 2.32,1.36c0.893,0.32 1.873,0.48 2.94,0.48c1.147,0 2.193,-0.16 3.14,-0.48c0.947,-0.32 1.873,-0.76 2.78,-1.32l1.16,2.16c-0.96,0.613 -2.053,1.147 -3.28,1.6c-1.227,0.453 -2.627,0.68 -4.2,0.68c-1.44,0 -2.793,-0.233 -4.06,-0.7c-1.267,-0.467 -2.373,-1.133 -3.32,-2c-0.947,-0.867 -1.693,-1.927 -2.24,-3.18c-0.547,-1.253 -0.82,-2.68 -0.82,-4.28Zm15.68,-1.6c0,-1.947 -0.507,-3.44 -1.52,-4.48c-1.013,-1.04 -2.427,-1.56 -4.24,-1.56c-0.8,0 -1.567,0.133 -2.3,0.4c-0.733,0.267 -1.393,0.66 -1.98,1.18c-0.587,0.52 -1.08,1.153 -1.48,1.9c-0.4,0.747 -0.667,1.6 -0.8,2.56l12.32,0Z" style="fill:#fff;fill-rule:nonzero;"></path><path d="M549.42,240.48c0,-1.627 0.287,-3.073 0.86,-4.34c0.573,-1.267 1.353,-2.34 2.34,-3.22c0.987,-0.88 2.14,-1.547 3.46,-2c1.32,-0.453 2.713,-0.68 4.18,-0.68c1.6,0 2.98,0.28 4.14,0.84c1.16,0.56 2.14,1.227 2.94,2l-1.64,2.12c-0.8,-0.693 -1.633,-1.24 -2.5,-1.64c-0.867,-0.4 -1.807,-0.6 -2.82,-0.6c-1.12,0 -2.147,0.18 -3.08,0.54c-0.933,0.36 -1.727,0.873 -2.38,1.54c-0.653,0.667 -1.167,1.46 -1.54,2.38c-0.373,0.92 -0.56,1.94 -0.56,3.06c0,1.12 0.18,2.133 0.54,3.04c0.36,0.907 0.867,1.687 1.52,2.34c0.653,0.653 1.44,1.16 2.36,1.52c0.92,0.36 1.94,0.54 3.06,0.54c1.2,0 2.3,-0.233 3.3,-0.7c1,-0.467 1.913,-1.047 2.74,-1.74l1.44,2.12c-1.067,0.96 -2.26,1.707 -3.58,2.24c-1.32,0.533 -2.7,0.8 -4.14,0.8c-1.52,0 -2.927,-0.227 -4.22,-0.68c-1.293,-0.453 -2.42,-1.113 -3.38,-1.98c-0.96,-0.867 -1.707,-1.933 -2.24,-3.2c-0.533,-1.267 -0.8,-2.7 -0.8,-4.3Z" style="fill:#fff;fill-rule:nonzero;"></path><path d="M579.9,240.88c-0.16,-0.96 -0.12,-1.813 0.12,-2.56c0.24,-0.747 0.593,-1.427 1.06,-2.04c0.467,-0.613 0.993,-1.187 1.58,-1.72c0.587,-0.533 1.14,-1.06 1.66,-1.58c0.52,-0.52 0.953,-1.06 1.3,-1.62c0.347,-0.56 0.52,-1.187 0.52,-1.88c0,-1.12 -0.367,-2.047 -1.1,-2.78c-0.733,-0.733 -1.833,-1.1 -3.3,-1.1c-1.013,0 -1.953,0.207 -2.82,0.62c-0.867,0.413 -1.66,0.98 -2.38,1.7l-1.96,-1.8c0.907,-0.933 1.973,-1.707 3.2,-2.32c1.227,-0.613 2.613,-0.92 4.16,-0.92c1.12,0 2.133,0.147 3.04,0.44c0.907,0.293 1.687,0.713 2.34,1.26c0.653,0.547 1.16,1.2 1.52,1.96c0.36,0.76 0.54,1.62 0.54,2.58c0,0.88 -0.18,1.66 -0.54,2.34c-0.36,0.68 -0.8,1.307 -1.32,1.88c-0.52,0.573 -1.08,1.127 -1.68,1.66c-0.6,0.533 -1.147,1.093 -1.64,1.68c-0.493,0.587 -0.88,1.22 -1.16,1.9c-0.28,0.68 -0.353,1.447 -0.22,2.3l-2.92,0Zm-1.16,6.64c0,-0.933 0.287,-1.673 0.86,-2.22c0.573,-0.547 1.26,-0.82 2.06,-0.82c0.8,0 1.487,0.273 2.06,0.82c0.573,0.547 0.86,1.287 0.86,2.22c0,0.96 -0.287,1.72 -0.86,2.28c-0.573,0.56 -1.26,0.84 -2.06,0.84c-0.8,0 -1.487,-0.28 -2.06,-0.84c-0.573,-0.56 -0.86,-1.32 -0.86,-2.28Z" style="fill:#fff;fill-rule:nonzero;"></path></svg> 